Coordinates
version=1
nRows=5
nColumns=40
inDegrees=yes

Units are S.I. units (second, meters, Newtons, ...)
Angles are in degrees.

endheader
time	pelvis_tilt	pelvis_list	pelvis_rotation	pelvis_tx	pelvis_ty	pelvis_tz	hip_flexion_r	hip_adduction_r	hip_rotation_r	knee_angle_r	knee_angle_r_beta	ankle_angle_r	subtalar_angle_r	mtp_angle_r	hip_flexion_l	hip_adduction_l	hip_rotation_l	knee_angle_l	knee_angle_l_beta	ankle_angle_l	subtalar_angle_l	mtp_angle_l	lumbar_extension	lumbar_bending	lumbar_rotation	arm_flex_r	arm_add_r	arm_rot_r	elbow_flex_r	pro_sup_r	wrist_flex_r	wrist_dev_r	arm_flex_l	arm_add_l	arm_rot_l	elbow_flex_l	pro_sup_l	wrist_flex_l	wrist_dev_l
      0.00000000	     -3.83839625	     -0.05904519	     -5.11996594	     -0.74875825	      0.86831677	     -0.97576696	     -6.37319783	      0.39716529	     -8.45691303	    -21.55276931	     -0.37616679	     13.29286973	      6.05535461	     -5.93432020	     35.26119360	     10.36541018	     19.18610671	    -23.34099378	     -0.40737719	      3.14300336	      6.83387256	      0.36766260	     -3.83169032	     -2.42026970	      6.03418292	     -1.71620233	    -14.79362244	     -0.99160322	     69.24206181	     89.95437384	      0.00000000	      0.00000000	    -13.78859480	      6.49515395	     17.98628848	     27.68609891	     89.95437384	      0.00000000	      0.00000000
      0.01000000	     -3.85172571	     -0.16621939	     -5.25434834	     -0.73663848	      0.86730060	     -0.97800071	     -6.85865689	      0.19662728	     -8.04171782	    -22.13678148	     -0.38635972	     12.81727776	      6.02474572	     -5.93245680	     35.20391533	     10.30873964	     19.31994589	    -23.70559237	     -0.41374064	      3.30037107	      7.07552441	      0.39905773	     -3.69914834	     -2.38993964	      5.75595083	     -1.60735588	    -14.76110083	     -0.77787515	     69.08754703	     89.95437384	      0.00000000	      0.00000000	    -13.86379548	      6.52092554	     17.91247278	     27.02597464	     89.95437384	      0.00000000	      0.00000000
      0.02000000	     -3.73561762	     -0.16519101	     -5.69625404	     -0.72413664	      0.86666625	     -0.97983679	     -7.44346936	     -0.19083847	     -7.35241091	    -22.68499393	     -0.39592783	     11.89436989	      6.06480131	     -6.13655288	     34.84915848	     10.19849886	     19.21741351	    -24.38214064	     -0.42554863	      3.58393092	      8.19578991	      0.59776805	     -3.65768861	     -2.50128009	      5.89617908	     -1.73571158	    -14.79979663	     -0.59715771	     68.96819486	     89.95437384	      0.00000000	      0.00000000	    -13.71208222	      6.51313640	     18.28540933	     26.16955124	     89.95437384	      0.00000000	      0.00000000
      0.03000000	     -3.91103905	     -0.21244002	     -5.78248035	     -0.71110708	      0.86551519	     -0.98212186	     -7.73588755	     -0.46467818	     -7.06860902	    -23.36936410	     -0.40787235	     11.42672177	      5.85197313	     -6.00587363	     34.68821084	      9.95643036	     18.77543798	    -24.90730337	     -0.43471445	      3.34745554	      8.02068647	      0.60695559	     -3.23881091	     -2.53507600	      5.66192184	     -2.04573617	    -14.74127763	     -0.59302361	     68.83657062	     89.95437384	      0.00000000	      0.00000000	    -14.07425006	      6.58965221	     18.22814842	     26.19384439	     89.95437384	      0.00000000	      0.00000000
      0.04000000	     -3.83091738	     -0.16143849	     -5.93996246	     -0.69878125	      0.86501217	     -0.98445633	     -8.06591101	     -0.80660087	     -6.26748039	    -24.27260126	     -0.42363681	      9.95619808	      5.24882161	     -6.28767186	     34.55680650	      9.44832593	     17.75989211	    -26.14095146	     -0.45624567	      2.77483597	     11.49218865	      1.46554683	     -3.16572753	     -2.70599340	      5.35359250	     -1.94024415	    -14.61274371	     -0.36859814	     68.19298394	     89.95437384	      0.00000000	      0.00000000	    -13.62990386	      6.59958067	     18.70296122	     24.92746665	     89.95437384	      0.00000000	      0.00000000
